<svg viewBox="0 0 400 300" xmlns="http://www.w3.org/2000/svg" font-family="Nunito, sans-serif">
  <!-- Space background -->
  <rect width="400" height="300" fill="#080c24"/>
  <!-- Stars -->
  <circle cx="30" cy="25" r="1.2" fill="white" opacity="0.7"/>
  <circle cx="80" cy="55" r="1" fill="white" opacity="0.5"/>
  <circle cx="150" cy="20" r="1.5" fill="white" opacity="0.8"/>
  <circle cx="210" cy="45" r="1" fill="white" opacity="0.6"/>
  <circle cx="290" cy="30" r="1.2" fill="white" opacity="0.7"/>
  <circle cx="360" cy="60" r="1" fill="white" opacity="0.5"/>
  <circle cx="370" cy="20" r="1.5" fill="white" opacity="0.8"/>
  <circle cx="320" cy="75" r="1" fill="white" opacity="0.5"/>
  <circle cx="380" cy="160" r="1.2" fill="white" opacity="0.7"/>
  <circle cx="340" cy="220" r="1.5" fill="white" opacity="0.8"/>
  <circle cx="250" cy="275" r="1.2" fill="white" opacity="0.7"/>
  <circle cx="60" cy="200" r="1" fill="white" opacity="0.5"/>
  <!-- Large asteroid -->
  <polygon points="200,88 245,106 265,138 258,173 232,196 195,202 162,190 148,160 155,126 178,103"
    fill="hsl(28,18%,38%)" stroke="hsl(28,18%,54%)" stroke-width="2"/>
  <circle cx="185" cy="133" r="14" fill="hsl(28,18%,28%)" opacity="0.7"/>
  <circle cx="225" cy="158" r="9" fill="hsl(28,18%,28%)" opacity="0.6"/>
  <!-- Ring decoration around asteroid -->
  <ellipse cx="200" cy="146" rx="48" ry="14" fill="none" stroke="#f9d84a" stroke-width="2.5" opacity="0.7"/>
  <ellipse cx="200" cy="146" rx="56" ry="17" fill="none" stroke="#f9d84a" stroke-width="1.5" opacity="0.4"/>
  <!-- Small asteroids -->
  <polygon points="60,105 74,111 80,125 76,138 64,145 52,140 46,127 50,114"
    fill="hsl(25,15%,35%)" stroke="hsl(25,15%,50%)" stroke-width="1.5"/>
  <polygon points="325,88 339,94 345,108 341,121 329,128 317,123 311,110 315,97"
    fill="hsl(30,12%,32%)" stroke="hsl(30,12%,47%)" stroke-width="1.5"/>
  <!-- Explosion -->
  <text x="200" y="156" text-anchor="middle" font-size="26">💥</text>
  <!-- Title -->
  <text x="200" y="236" text-anchor="middle" font-size="22" font-weight="900" fill="white">BLAST THINGS WITH</text>
  <text x="200" y="264" text-anchor="middle" font-size="26" font-weight="900" fill="#f9d84a">RINGS!</text>
</svg>
