<svg viewBox="0 0 400 300" xmlns="http://www.w3.org/2000/svg" font-family="Nunito, sans-serif">
  <!-- Space background -->
  <rect width="400" height="300" fill="#080c24"/>
  <!-- Stars -->
  <circle cx="30" cy="25" r="1.2" fill="white" opacity="0.7"/>
  <circle cx="80" cy="55" r="1" fill="white" opacity="0.5"/>
  <circle cx="150" cy="20" r="1.5" fill="white" opacity="0.8"/>
  <circle cx="210" cy="45" r="1" fill="white" opacity="0.6"/>
  <circle cx="290" cy="30" r="1.2" fill="white" opacity="0.7"/>
  <circle cx="360" cy="60" r="1" fill="white" opacity="0.5"/>
  <circle cx="370" cy="20" r="1.5" fill="white" opacity="0.8"/>
  <circle cx="50" cy="80" r="1" fill="white" opacity="0.6"/>
  <circle cx="320" cy="75" r="1" fill="white" opacity="0.5"/>
  <circle cx="20" cy="140" r="1" fill="white" opacity="0.6"/>
  <circle cx="380" cy="160" r="1.2" fill="white" opacity="0.7"/>
  <circle cx="60" cy="200" r="1" fill="white" opacity="0.5"/>
  <circle cx="340" cy="220" r="1.5" fill="white" opacity="0.8"/>
  <circle cx="250" cy="275" r="1.2" fill="white" opacity="0.7"/>
  <!-- Large asteroid -->
  <polygon points="200,88 245,106 265,138 258,173 232,196 195,202 162,190 148,160 155,126 178,103"
    fill="hsl(28,18%,38%)" stroke="hsl(28,18%,54%)" stroke-width="2"/>
  <circle cx="185" cy="133" r="14" fill="hsl(28,18%,28%)" opacity="0.7"/>
  <circle cx="225" cy="158" r="9" fill="hsl(28,18%,28%)" opacity="0.6"/>
  <!-- Small asteroids -->
  <polygon points="68,118 82,124 88,138 84,151 72,158 60,153 54,140 58,127"
    fill="hsl(25,15%,35%)" stroke="hsl(25,15%,50%)" stroke-width="1.5"/>
  <polygon points="320,83 334,89 340,103 336,116 324,123 312,118 306,105 310,92"
    fill="hsl(30,12%,32%)" stroke="hsl(30,12%,47%)" stroke-width="1.5"/>
  <!-- Gas cloud swirl effect -->
  <ellipse cx="200" cy="146" rx="30" ry="12" fill="none" stroke="#a8f0ff" stroke-width="1.5" opacity="0.25"/>
  <ellipse cx="200" cy="146" rx="20" ry="8" fill="none" stroke="#55b6ca" stroke-width="1" opacity="0.3"/>
  <!-- Explosion -->
  <text x="200" y="156" text-anchor="middle" font-size="28">💥</text>
  <!-- Title -->
  <text x="200" y="236" text-anchor="middle" font-size="24" font-weight="900" fill="white">BLAST THE</text>
  <text x="200" y="264" text-anchor="middle" font-size="22" font-weight="900" fill="#f9d84a">GAS GIANTS!</text>
</svg>
